<?xml version="1.0" encoding="UTF-8" standalone="no"?>
<!DOCTYPE svg PUBLIC "-//W3C//DTD SVG 1.1//EN" "http://www.w3.org/Graphics/SVG/1.1/DTD/svg11.dtd">
<svg width="100%" height="100%" viewBox="0 0 1040 1040" version="1.1" xmlns="http://www.w3.org/2000/svg" xmlns:xlink="http://www.w3.org/1999/xlink" xml:space="preserve" xmlns:serif="http://www.serif.com/" style="fill-rule:evenodd;clip-rule:evenodd;stroke-miterlimit:1.5;">
    <g transform="matrix(1,0,0,1,-708.661,-212.598)">
        <g transform="matrix(1,0,0,1,38.0549,-183.071)">
            <circle cx="1181.1" cy="590.551" r="106.299" style="fill:rgb(116,46,18);"/>
        </g>
        <g transform="matrix(1,0,0,-1,38.0549,1635.83)">
            <path d="M1181.1,803.15L1322.84,1086.61L1039.37,1086.61L1181.1,803.15Z" style="fill:rgb(116,46,18);"/>
        </g>
        <g transform="matrix(0.5,0.866025,-0.866025,0.5,1773.78,-916.155)">
            <rect x="1086.61" y="1086.61" width="141.732" height="31.147" style="fill:rgb(116,46,18);"/>
        </g>
        <g transform="matrix(-0.299943,0.519517,0.866025,0.5,435.337,-539.634)">
            <rect x="1086.61" y="1086.61" width="141.732" height="31.147" style="fill:rgb(116,46,18);"/>
        </g>
        <g transform="matrix(0.387644,-0.387644,0.312187,0.312187,-476.154,2446.98)">
            <g transform="matrix(1.28984,1.6016,-1.28984,1.6016,4410.23,-1680.99)">
                <path d="M864.822,372.058L675.846,561.033L699.26,584.447L888.236,395.472L864.822,372.058Z" style="fill:rgb(116,46,18);"/>
            </g>
            <g transform="matrix(1,0,0,1.52801,47.2083,-156.367)">
                <path d="M4562.69,300L4562.69,309.375" style="fill:none;stroke:rgb(210,138,45);stroke-width:3.39px;"/>
            </g>
            <g transform="matrix(1,0,0,1.52801,94.0833,-156.367)">
                <path d="M4562.69,300L4562.69,309.375" style="fill:none;stroke:rgb(210,138,45);stroke-width:3.39px;"/>
            </g>
            <g transform="matrix(1,0,0,1.52801,140.958,-156.367)">
                <path d="M4562.69,300L4562.69,309.375" style="fill:none;stroke:rgb(210,138,45);stroke-width:3.39px;"/>
            </g>
            <g transform="matrix(1,0,0,1.52801,187.833,-156.367)">
                <path d="M4562.69,300L4562.69,309.375" style="fill:none;stroke:rgb(210,138,45);stroke-width:3.39px;"/>
            </g>
            <g transform="matrix(1,0,0,1.52801,234.708,-156.367)">
                <path d="M4562.69,300L4562.69,309.375" style="fill:none;stroke:rgb(210,138,45);stroke-width:3.39px;"/>
            </g>
            <g transform="matrix(1,0,0,1.52801,281.583,-156.367)">
                <path d="M4562.69,300L4562.69,309.375" style="fill:none;stroke:rgb(210,138,45);stroke-width:3.39px;"/>
            </g>
            <g transform="matrix(1,0,0,1.52801,328.458,-156.367)">
                <path d="M4562.69,300L4562.69,309.375" style="fill:none;stroke:rgb(210,138,45);stroke-width:3.39px;"/>
            </g>
            <g transform="matrix(1,0,0,1.52801,375.333,-156.367)">
                <path d="M4562.69,300L4562.69,309.375" style="fill:none;stroke:rgb(210,138,45);stroke-width:3.39px;"/>
            </g>
            <g transform="matrix(1,0,0,1.52801,422.208,-156.367)">
                <path d="M4562.69,300L4562.69,309.375" style="fill:none;stroke:rgb(210,138,45);stroke-width:3.39px;"/>
            </g>
            <g transform="matrix(1,0,0,2.29201,19.0833,-385.568)">
                <path d="M4562.69,300L4562.69,309.375" style="fill:none;stroke:rgb(210,138,45);stroke-width:2.56px;"/>
            </g>
            <g transform="matrix(1,0,0,2.29201,65.9583,-385.568)">
                <path d="M4562.69,300L4562.69,309.375" style="fill:none;stroke:rgb(210,138,45);stroke-width:2.56px;"/>
            </g>
            <g transform="matrix(1,0,0,2.29201,112.833,-385.568)">
                <path d="M4562.69,300L4562.69,309.375" style="fill:none;stroke:rgb(210,138,45);stroke-width:2.56px;"/>
            </g>
            <g transform="matrix(1,0,0,2.29201,159.708,-385.568)">
                <path d="M4562.69,300L4562.69,309.375" style="fill:none;stroke:rgb(210,138,45);stroke-width:2.56px;"/>
            </g>
            <g transform="matrix(1,0,0,2.29201,206.583,-385.568)">
                <path d="M4562.69,300L4562.69,309.375" style="fill:none;stroke:rgb(210,138,45);stroke-width:2.56px;"/>
            </g>
            <g transform="matrix(1,0,0,2.29201,253.458,-385.568)">
                <path d="M4562.69,300L4562.69,309.375" style="fill:none;stroke:rgb(210,138,45);stroke-width:2.56px;"/>
            </g>
            <g transform="matrix(1,0,0,2.29201,300.333,-385.568)">
                <path d="M4562.69,300L4562.69,309.375" style="fill:none;stroke:rgb(210,138,45);stroke-width:2.56px;"/>
            </g>
            <g transform="matrix(1,0,0,2.29201,347.208,-385.568)">
                <path d="M4562.69,300L4562.69,309.375" style="fill:none;stroke:rgb(210,138,45);stroke-width:2.56px;"/>
            </g>
            <g transform="matrix(1,0,0,2.29201,394.083,-385.568)">
                <path d="M4562.69,300L4562.69,309.375" style="fill:none;stroke:rgb(210,138,45);stroke-width:2.56px;"/>
            </g>
            <g transform="matrix(1,0,0,2.29201,440.958,-385.568)">
                <path d="M4562.69,300L4562.69,309.375" style="fill:none;stroke:rgb(210,138,45);stroke-width:2.56px;"/>
            </g>
            <g transform="matrix(1,0,0,3.05602,42.5208,-614.77)">
                <path d="M4562.69,300L4562.69,309.375" style="fill:none;stroke:rgb(210,138,45);stroke-width:2.02px;"/>
            </g>
            <g transform="matrix(1,0,0,3.05602,89.3958,-614.77)">
                <path d="M4562.69,300L4562.69,309.375" style="fill:none;stroke:rgb(210,138,45);stroke-width:2.02px;"/>
            </g>
            <g transform="matrix(1,0,0,3.05602,136.271,-614.77)">
                <path d="M4562.69,300L4562.69,309.375" style="fill:none;stroke:rgb(210,138,45);stroke-width:2.02px;"/>
            </g>
            <g transform="matrix(1,0,0,3.05602,183.146,-614.77)">
                <path d="M4562.69,300L4562.69,309.375" style="fill:none;stroke:rgb(210,138,45);stroke-width:2.02px;"/>
            </g>
            <g transform="matrix(1,0,0,3.05602,230.021,-614.77)">
                <path d="M4562.69,300L4562.69,309.375" style="fill:none;stroke:rgb(210,138,45);stroke-width:2.02px;"/>
            </g>
            <g transform="matrix(1,0,0,3.05602,276.896,-614.77)">
                <path d="M4562.69,300L4562.69,309.375" style="fill:none;stroke:rgb(210,138,45);stroke-width:2.02px;"/>
            </g>
            <g transform="matrix(1,0,0,3.05602,323.771,-614.77)">
                <path d="M4562.69,300L4562.69,309.375" style="fill:none;stroke:rgb(210,138,45);stroke-width:2.02px;"/>
            </g>
            <g transform="matrix(1,0,0,3.05602,370.646,-614.77)">
                <path d="M4562.69,300L4562.69,309.375" style="fill:none;stroke:rgb(210,138,45);stroke-width:2.02px;"/>
            </g>
            <g transform="matrix(1,0,0,3.05602,417.521,-614.77)">
                <path d="M4562.69,300L4562.69,309.375" style="fill:none;stroke:rgb(210,138,45);stroke-width:2.02px;"/>
            </g>
            <g transform="matrix(1,0,0,3.05602,464.396,-614.77)">
                <path d="M4562.69,300L4562.69,309.375" style="fill:none;stroke:rgb(210,138,45);stroke-width:2.02px;"/>
            </g>
            <g transform="matrix(1,0,0,1.52801,9.70833,-156.367)">
                <path d="M4562.69,300L4562.69,309.375" style="fill:none;stroke:rgb(210,138,45);stroke-width:3.39px;"/>
            </g>
            <g transform="matrix(1,0,0,1.52801,56.5833,-156.367)">
                <path d="M4562.69,300L4562.69,309.375" style="fill:none;stroke:rgb(210,138,45);stroke-width:3.39px;"/>
            </g>
            <g transform="matrix(1,0,0,1.52801,103.458,-156.367)">
                <path d="M4562.69,300L4562.69,309.375" style="fill:none;stroke:rgb(210,138,45);stroke-width:3.39px;"/>
            </g>
            <g transform="matrix(1,0,0,1.52801,150.333,-156.367)">
                <path d="M4562.69,300L4562.69,309.375" style="fill:none;stroke:rgb(210,138,45);stroke-width:3.39px;"/>
            </g>
            <g transform="matrix(1,0,0,1.52801,197.208,-156.367)">
                <path d="M4562.69,300L4562.69,309.375" style="fill:none;stroke:rgb(210,138,45);stroke-width:3.39px;"/>
            </g>
            <g transform="matrix(1,0,0,1.52801,244.083,-156.367)">
                <path d="M4562.69,300L4562.69,309.375" style="fill:none;stroke:rgb(210,138,45);stroke-width:3.39px;"/>
            </g>
            <g transform="matrix(1,0,0,1.52801,290.958,-156.367)">
                <path d="M4562.69,300L4562.69,309.375" style="fill:none;stroke:rgb(210,138,45);stroke-width:3.39px;"/>
            </g>
            <g transform="matrix(1,0,0,1.52801,337.833,-156.367)">
                <path d="M4562.69,300L4562.69,309.375" style="fill:none;stroke:rgb(210,138,45);stroke-width:3.39px;"/>
            </g>
            <g transform="matrix(1,0,0,1.52801,384.708,-156.367)">
                <path d="M4562.69,300L4562.69,309.375" style="fill:none;stroke:rgb(210,138,45);stroke-width:3.39px;"/>
            </g>
            <g transform="matrix(1,0,0,1.52801,431.583,-156.367)">
                <path d="M4562.69,300L4562.69,309.375" style="fill:none;stroke:rgb(210,138,45);stroke-width:3.39px;"/>
            </g>
            <g transform="matrix(1,0,0,1.52801,14.3958,-156.367)">
                <path d="M4562.69,300L4562.69,309.375" style="fill:none;stroke:rgb(210,138,45);stroke-width:3.39px;"/>
            </g>
            <g transform="matrix(1,0,0,1.52801,61.2708,-156.367)">
                <path d="M4562.69,300L4562.69,309.375" style="fill:none;stroke:rgb(210,138,45);stroke-width:3.39px;"/>
            </g>
            <g transform="matrix(1,0,0,1.52801,108.146,-156.367)">
                <path d="M4562.69,300L4562.69,309.375" style="fill:none;stroke:rgb(210,138,45);stroke-width:3.39px;"/>
            </g>
            <g transform="matrix(1,0,0,1.52801,155.021,-156.367)">
                <path d="M4562.69,300L4562.69,309.375" style="fill:none;stroke:rgb(210,138,45);stroke-width:3.39px;"/>
            </g>
            <g transform="matrix(1,0,0,1.52801,201.896,-156.367)">
                <path d="M4562.69,300L4562.69,309.375" style="fill:none;stroke:rgb(210,138,45);stroke-width:3.39px;"/>
            </g>
            <g transform="matrix(1,0,0,1.52801,248.771,-156.367)">
                <path d="M4562.69,300L4562.69,309.375" style="fill:none;stroke:rgb(210,138,45);stroke-width:3.39px;"/>
            </g>
            <g transform="matrix(1,0,0,1.52801,295.646,-156.367)">
                <path d="M4562.69,300L4562.69,309.375" style="fill:none;stroke:rgb(210,138,45);stroke-width:3.39px;"/>
            </g>
            <g transform="matrix(1,0,0,1.52801,342.521,-156.367)">
                <path d="M4562.69,300L4562.69,309.375" style="fill:none;stroke:rgb(210,138,45);stroke-width:3.39px;"/>
            </g>
            <g transform="matrix(1,0,0,1.52801,389.396,-156.367)">
                <path d="M4562.69,300L4562.69,309.375" style="fill:none;stroke:rgb(210,138,45);stroke-width:3.39px;"/>
            </g>
            <g transform="matrix(1,0,0,1.52801,436.271,-156.367)">
                <path d="M4562.69,300L4562.69,309.375" style="fill:none;stroke:rgb(210,138,45);stroke-width:3.39px;"/>
            </g>
            <g transform="matrix(1,0,0,1.52801,23.7708,-156.367)">
                <path d="M4562.69,300L4562.69,309.375" style="fill:none;stroke:rgb(210,138,45);stroke-width:3.39px;"/>
            </g>
            <g transform="matrix(1,0,0,1.52801,70.6458,-156.367)">
                <path d="M4562.69,300L4562.69,309.375" style="fill:none;stroke:rgb(210,138,45);stroke-width:3.39px;"/>
            </g>
            <g transform="matrix(1,0,0,1.52801,117.521,-156.367)">
                <path d="M4562.69,300L4562.69,309.375" style="fill:none;stroke:rgb(210,138,45);stroke-width:3.39px;"/>
            </g>
            <g transform="matrix(1,0,0,1.52801,164.396,-156.367)">
                <path d="M4562.69,300L4562.69,309.375" style="fill:none;stroke:rgb(210,138,45);stroke-width:3.39px;"/>
            </g>
            <g transform="matrix(1,0,0,1.52801,211.271,-156.367)">
                <path d="M4562.69,300L4562.69,309.375" style="fill:none;stroke:rgb(210,138,45);stroke-width:3.39px;"/>
            </g>
            <g transform="matrix(1,0,0,1.52801,258.146,-156.367)">
                <path d="M4562.69,300L4562.69,309.375" style="fill:none;stroke:rgb(210,138,45);stroke-width:3.39px;"/>
            </g>
            <g transform="matrix(1,0,0,1.52801,305.021,-156.367)">
                <path d="M4562.69,300L4562.69,309.375" style="fill:none;stroke:rgb(210,138,45);stroke-width:3.39px;"/>
            </g>
            <g transform="matrix(1,0,0,1.52801,351.896,-156.367)">
                <path d="M4562.69,300L4562.69,309.375" style="fill:none;stroke:rgb(210,138,45);stroke-width:3.39px;"/>
            </g>
            <g transform="matrix(1,0,0,1.52801,398.771,-156.367)">
                <path d="M4562.69,300L4562.69,309.375" style="fill:none;stroke:rgb(210,138,45);stroke-width:3.39px;"/>
            </g>
            <g transform="matrix(1,0,0,1.52801,445.646,-156.367)">
                <path d="M4562.69,300L4562.69,309.375" style="fill:none;stroke:rgb(210,138,45);stroke-width:3.39px;"/>
            </g>
            <g transform="matrix(1,0,0,1.52801,33.1458,-156.367)">
                <path d="M4562.69,300L4562.69,309.375" style="fill:none;stroke:rgb(210,138,45);stroke-width:3.39px;"/>
            </g>
            <g transform="matrix(1,0,0,1.52801,80.0208,-156.367)">
                <path d="M4562.69,300L4562.69,309.375" style="fill:none;stroke:rgb(210,138,45);stroke-width:3.39px;"/>
            </g>
            <g transform="matrix(1,0,0,1.52801,126.896,-156.367)">
                <path d="M4562.69,300L4562.69,309.375" style="fill:none;stroke:rgb(210,138,45);stroke-width:3.39px;"/>
            </g>
            <g transform="matrix(1,0,0,1.52801,173.771,-156.367)">
                <path d="M4562.69,300L4562.69,309.375" style="fill:none;stroke:rgb(210,138,45);stroke-width:3.39px;"/>
            </g>
            <g transform="matrix(1,0,0,1.52801,220.646,-156.367)">
                <path d="M4562.69,300L4562.69,309.375" style="fill:none;stroke:rgb(210,138,45);stroke-width:3.39px;"/>
            </g>
            <g transform="matrix(1,0,0,1.52801,267.521,-156.367)">
                <path d="M4562.69,300L4562.69,309.375" style="fill:none;stroke:rgb(210,138,45);stroke-width:3.39px;"/>
            </g>
            <g transform="matrix(1,0,0,1.52801,314.396,-156.367)">
                <path d="M4562.69,300L4562.69,309.375" style="fill:none;stroke:rgb(210,138,45);stroke-width:3.39px;"/>
            </g>
            <g transform="matrix(1,0,0,1.52801,361.271,-156.367)">
                <path d="M4562.69,300L4562.69,309.375" style="fill:none;stroke:rgb(210,138,45);stroke-width:3.39px;"/>
            </g>
            <g transform="matrix(1,0,0,1.52801,408.146,-156.367)">
                <path d="M4562.69,300L4562.69,309.375" style="fill:none;stroke:rgb(210,138,45);stroke-width:3.39px;"/>
            </g>
            <g transform="matrix(1,0,0,1.52801,455.021,-156.367)">
                <path d="M4562.69,300L4562.69,309.375" style="fill:none;stroke:rgb(210,138,45);stroke-width:3.39px;"/>
            </g>
            <g transform="matrix(1,0,0,1.52801,473.771,-156.367)">
                <path d="M4562.69,300L4562.69,309.375" style="fill:none;stroke:rgb(210,138,45);stroke-width:3.39px;"/>
            </g>
            <g transform="matrix(1,0,0,1.52801,37.8333,-156.367)">
                <path d="M4562.69,300L4562.69,309.375" style="fill:none;stroke:rgb(210,138,45);stroke-width:3.39px;"/>
            </g>
            <g transform="matrix(1,0,0,1.52801,84.7083,-156.367)">
                <path d="M4562.69,300L4562.69,309.375" style="fill:none;stroke:rgb(210,138,45);stroke-width:3.39px;"/>
            </g>
            <g transform="matrix(1,0,0,1.52801,131.583,-156.367)">
                <path d="M4562.69,300L4562.69,309.375" style="fill:none;stroke:rgb(210,138,45);stroke-width:3.39px;"/>
            </g>
            <g transform="matrix(1,0,0,1.52801,178.458,-156.367)">
                <path d="M4562.69,300L4562.69,309.375" style="fill:none;stroke:rgb(210,138,45);stroke-width:3.39px;"/>
            </g>
            <g transform="matrix(1,0,0,1.52801,225.333,-156.367)">
                <path d="M4562.69,300L4562.69,309.375" style="fill:none;stroke:rgb(210,138,45);stroke-width:3.39px;"/>
            </g>
            <g transform="matrix(1,0,0,1.52801,272.208,-156.367)">
                <path d="M4562.69,300L4562.69,309.375" style="fill:none;stroke:rgb(210,138,45);stroke-width:3.39px;"/>
            </g>
            <g transform="matrix(1,0,0,1.52801,319.083,-156.367)">
                <path d="M4562.69,300L4562.69,309.375" style="fill:none;stroke:rgb(210,138,45);stroke-width:3.39px;"/>
            </g>
            <g transform="matrix(1,0,0,1.52801,365.958,-156.367)">
                <path d="M4562.69,300L4562.69,309.375" style="fill:none;stroke:rgb(210,138,45);stroke-width:3.39px;"/>
            </g>
            <g transform="matrix(1,0,0,1.52801,412.833,-156.367)">
                <path d="M4562.69,300L4562.69,309.375" style="fill:none;stroke:rgb(210,138,45);stroke-width:3.39px;"/>
            </g>
            <g transform="matrix(1,0,0,1.52801,459.708,-156.367)">
                <path d="M4562.69,300L4562.69,309.375" style="fill:none;stroke:rgb(210,138,45);stroke-width:3.39px;"/>
            </g>
            <g transform="matrix(1,0,0,1.52801,478.458,-156.367)">
                <path d="M4562.69,300L4562.69,309.375" style="fill:none;stroke:rgb(210,138,45);stroke-width:3.39px;"/>
            </g>
            <g transform="matrix(1,0,0,1.52801,28.4583,-156.367)">
                <path d="M4562.69,300L4562.69,309.375" style="fill:none;stroke:rgb(210,138,45);stroke-width:3.39px;"/>
            </g>
            <g transform="matrix(1,0,0,1.52801,75.3333,-156.367)">
                <path d="M4562.69,300L4562.69,309.375" style="fill:none;stroke:rgb(210,138,45);stroke-width:3.39px;"/>
            </g>
            <g transform="matrix(1,0,0,1.52801,122.208,-156.367)">
                <path d="M4562.69,300L4562.69,309.375" style="fill:none;stroke:rgb(210,138,45);stroke-width:3.39px;"/>
            </g>
            <g transform="matrix(1,0,0,1.52801,169.083,-156.367)">
                <path d="M4562.69,300L4562.69,309.375" style="fill:none;stroke:rgb(210,138,45);stroke-width:3.39px;"/>
            </g>
            <g transform="matrix(1,0,0,1.52801,215.958,-156.367)">
                <path d="M4562.69,300L4562.69,309.375" style="fill:none;stroke:rgb(210,138,45);stroke-width:3.39px;"/>
            </g>
            <g transform="matrix(1,0,0,1.52801,262.833,-156.367)">
                <path d="M4562.69,300L4562.69,309.375" style="fill:none;stroke:rgb(210,138,45);stroke-width:3.39px;"/>
            </g>
            <g transform="matrix(1,0,0,1.52801,309.708,-156.367)">
                <path d="M4562.69,300L4562.69,309.375" style="fill:none;stroke:rgb(210,138,45);stroke-width:3.39px;"/>
            </g>
            <g transform="matrix(1,0,0,1.52801,356.583,-156.367)">
                <path d="M4562.69,300L4562.69,309.375" style="fill:none;stroke:rgb(210,138,45);stroke-width:3.39px;"/>
            </g>
            <g transform="matrix(1,0,0,1.52801,403.458,-156.367)">
                <path d="M4562.69,300L4562.69,309.375" style="fill:none;stroke:rgb(210,138,45);stroke-width:3.39px;"/>
            </g>
            <g transform="matrix(1,0,0,1.52801,450.333,-156.367)">
                <path d="M4562.69,300L4562.69,309.375" style="fill:none;stroke:rgb(210,138,45);stroke-width:3.39px;"/>
            </g>
            <g transform="matrix(1,0,0,1.52801,469.083,-156.367)">
                <path d="M4562.69,300L4562.69,309.375" style="fill:none;stroke:rgb(210,138,45);stroke-width:3.39px;"/>
            </g>
            <g transform="matrix(1,0,0,1.52801,5.02083,-156.367)">
                <path d="M4562.69,300L4562.69,309.375" style="fill:none;stroke:rgb(210,138,45);stroke-width:3.39px;"/>
            </g>
            <g transform="matrix(1,0,0,1.52801,51.8958,-156.367)">
                <path d="M4562.69,300L4562.69,309.375" style="fill:none;stroke:rgb(210,138,45);stroke-width:3.39px;"/>
            </g>
            <g transform="matrix(1,0,0,1.52801,98.7708,-156.367)">
                <path d="M4562.69,300L4562.69,309.375" style="fill:none;stroke:rgb(210,138,45);stroke-width:3.39px;"/>
            </g>
            <g transform="matrix(1,0,0,1.52801,145.646,-156.367)">
                <path d="M4562.69,300L4562.69,309.375" style="fill:none;stroke:rgb(210,138,45);stroke-width:3.39px;"/>
            </g>
            <g transform="matrix(1,0,0,1.52801,192.521,-156.367)">
                <path d="M4562.69,300L4562.69,309.375" style="fill:none;stroke:rgb(210,138,45);stroke-width:3.39px;"/>
            </g>
            <g transform="matrix(1,0,0,1.52801,239.396,-156.367)">
                <path d="M4562.69,300L4562.69,309.375" style="fill:none;stroke:rgb(210,138,45);stroke-width:3.39px;"/>
            </g>
            <g transform="matrix(1,0,0,1.52801,286.271,-156.367)">
                <path d="M4562.69,300L4562.69,309.375" style="fill:none;stroke:rgb(210,138,45);stroke-width:3.39px;"/>
            </g>
            <g transform="matrix(1,0,0,1.52801,333.146,-156.367)">
                <path d="M4562.69,300L4562.69,309.375" style="fill:none;stroke:rgb(210,138,45);stroke-width:3.39px;"/>
            </g>
            <g transform="matrix(1,0,0,1.52801,380.021,-156.367)">
                <path d="M4562.69,300L4562.69,309.375" style="fill:none;stroke:rgb(210,138,45);stroke-width:3.39px;"/>
            </g>
            <g transform="matrix(1,0,0,1.52801,426.896,-156.367)">
                <path d="M4562.69,300L4562.69,309.375" style="fill:none;stroke:rgb(210,138,45);stroke-width:3.39px;"/>
            </g>
        </g>
        <g transform="matrix(0.509878,0,0,0.509878,314.859,184.463)">
            <g transform="matrix(1.96125,0,0,1.96125,772.346,55.1799)">
                <path d="M332.774,466.607L198.931,466.607L219.008,442.707L312.698,442.707L332.774,466.607ZM300.506,459.27L231.519,459.27C228.898,459.27 236.486,450.038 239.108,450.038L292.917,450.038C295.539,450.038 303.127,459.27 300.506,459.27Z" style="fill:rgb(116,46,18);"/>
            </g>
            <g transform="matrix(1.96125,0,0,1.96125,772.346,55.1799)">
                <path d="M380.575,486.312C380.575,476.755 372.815,468.996 363.26,468.996L168.446,468.996C158.89,468.996 151.13,476.755 151.13,486.312L151.13,567.122C151.13,576.677 158.89,584.438 168.446,584.438L363.26,584.438C372.815,584.438 380.575,576.677 380.575,567.122L380.575,486.312ZM286.984,505.504L286.984,498.099L301.281,489.844L311.604,495.806L297.224,504.108L301.131,510.876L315.576,502.536L315.579,514.61L301.282,522.864L294.865,519.155L245.04,547.921L245.044,555.334L230.748,563.588L220.293,557.548L234.737,549.209L230.83,542.441L216.449,550.744L216.449,538.822L230.746,530.568L237.159,534.271L286.984,505.504Z" style="fill:rgb(116,46,18);"/>
            </g>
        </g>
        <g transform="matrix(1,0,0,1,708.661,212.598)">
            <path d="M1015.75,637.796L23.622,637.796L23.622,1015.75L1015.75,1015.75L1015.75,637.796ZM556.961,923.187L556.961,836.854L600.128,836.854C610.55,836.854 618.678,839.42 624.511,844.554C630.345,849.687 633.261,857.115 633.261,866.837C633.261,876.637 630.345,884.104 624.511,889.237C618.678,894.37 610.55,896.937 600.128,896.937L573.878,896.937L573.878,923.187L556.961,923.187ZM198.328,897.52C187.906,897.52 179.778,894.934 173.944,889.762C168.111,884.59 165.194,876.987 165.194,866.954C165.194,856.843 168.111,849.201 173.944,844.029C179.778,838.856 187.906,836.27 198.328,836.27L227.495,836.27C234.339,836.27 239.57,837.884 243.186,841.112C246.803,844.34 248.611,848.948 248.611,854.937C248.611,867.148 241.572,873.254 227.495,873.254L183.394,873.254C185.028,880.487 190.006,884.104 198.328,884.104L245.578,884.104L245.578,897.52L198.328,897.52ZM370.411,897.52C359.988,897.52 351.861,894.934 346.027,889.762C340.194,884.59 337.277,876.987 337.277,866.954C337.277,856.843 340.194,849.201 346.027,844.029C351.861,838.856 359.988,836.27 370.411,836.27L399.577,836.27C406.422,836.27 411.652,837.884 415.269,841.112C418.886,844.34 420.694,848.948 420.694,854.937C420.694,867.148 413.655,873.254 399.577,873.254L355.477,873.254C357.111,880.487 362.088,884.104 370.411,884.104L417.661,884.104L417.661,897.52L370.411,897.52ZM784.462,897.52C774.04,897.52 765.912,894.934 760.078,889.762C754.245,884.59 751.328,876.987 751.328,866.954C751.328,856.843 754.245,849.201 760.078,844.029C765.912,838.856 774.04,836.27 784.462,836.27L813.629,836.27C820.473,836.27 825.704,837.884 829.32,841.112C832.937,844.34 834.745,848.948 834.745,854.937C834.745,867.148 827.706,873.254 813.629,873.254L769.528,873.254C771.162,880.487 776.14,884.104 784.462,884.104L831.712,884.104L831.712,897.52L784.462,897.52ZM491.744,897.52C481.322,897.52 473.194,894.934 467.361,889.762C461.528,884.59 458.611,876.987 458.611,866.954C458.611,856.843 461.528,849.201 467.361,844.029C473.194,838.856 481.322,836.27 491.744,836.27L513.328,836.27C523.75,836.27 531.878,838.856 537.711,844.029C543.545,849.201 546.461,856.843 546.461,866.954C546.461,876.987 543.545,884.59 537.711,889.762C531.878,894.934 523.75,897.52 513.328,897.52L491.744,897.52ZM58.911,896.937L58.911,813.52L72.677,813.52L110.011,813.404C125.1,813.404 136.805,816.942 145.128,824.02C153.45,831.098 157.611,841.481 157.611,855.17C157.611,868.859 153.45,879.243 145.128,886.32C136.805,893.398 125.1,896.937 110.011,896.937L58.911,896.937ZM431.194,896.937L431.194,813.52L448.111,813.52L448.111,896.937L431.194,896.937ZM845.245,896.937L845.245,836.854L897.629,836.854C904.473,836.854 909.471,838.545 912.621,841.929C915.771,845.312 917.346,849.765 917.346,855.287L917.346,896.937L900.429,896.937L900.429,857.27C900.429,852.604 898.096,850.27 893.429,850.27L862.162,850.27L862.162,896.937L845.245,896.937ZM278.01,896.937L252.694,836.854L270.427,836.854L290.027,883.404L295.86,883.404L315.461,836.854L333.194,836.854L307.877,896.937L278.01,896.937ZM960.862,896.937C954.096,896.937 949.118,895.245 945.929,891.862C942.74,888.479 941.146,884.026 941.146,878.504L941.146,850.27L923.762,850.27L923.762,836.854L941.146,836.854L941.146,818.42L958.062,818.42L958.062,836.854L983.029,836.854L983.029,850.27L958.062,850.27L958.062,876.404C958.062,881.148 960.396,883.52 965.062,883.52L986.296,883.52L986.296,896.937L960.862,896.937ZM643.761,896.937L643.761,836.854L721.578,836.854C728.423,836.854 733.439,838.545 736.628,841.929C739.817,845.312 741.412,849.765 741.412,855.287L741.412,896.937L724.495,896.937L724.495,857.387C724.495,852.643 722.084,850.27 717.262,850.27L701.045,850.27L701.045,896.937L684.128,896.937L684.128,850.27L660.678,850.27L660.678,896.937L643.761,896.937ZM491.744,884.104L513.328,884.104C518.383,884.104 522.253,882.704 524.936,879.904C527.619,877.104 528.961,872.787 528.961,866.954C528.961,861.043 527.619,856.687 524.936,853.887C522.253,851.087 518.383,849.687 513.328,849.687L491.744,849.687C486.689,849.687 482.819,851.087 480.136,853.887C477.453,856.687 476.111,861.043 476.111,866.954C476.111,872.787 477.453,877.104 480.136,879.904C482.819,882.704 486.689,884.104 491.744,884.104ZM600.128,850.27L573.878,850.27L573.878,883.52L600.128,883.52C605.184,883.52 609.053,882.14 611.736,879.379C614.42,876.618 615.761,872.437 615.761,866.837C615.761,861.315 614.42,857.173 611.736,854.412C609.053,851.651 605.184,850.27 600.128,850.27ZM108.727,828.57L77.577,828.57L77.577,881.77L108.727,881.77C118.528,881.77 125.955,879.631 131.011,875.354C136.066,871.076 138.594,864.348 138.594,855.17C138.594,845.915 136.066,839.167 131.011,834.929C125.955,830.69 118.528,828.57 108.727,828.57ZM198.328,849.687C190.317,849.687 185.378,853.07 183.511,859.837L226.678,859.837C228.233,859.837 229.458,859.37 230.353,858.437C231.247,857.504 231.695,856.22 231.695,854.587C231.695,851.32 230.022,849.687 226.678,849.687L198.328,849.687ZM370.411,849.687C362.4,849.687 357.461,853.07 355.594,859.837L398.761,859.837C400.316,859.837 401.541,859.37 402.436,858.437C403.33,857.504 403.777,856.22 403.777,854.587C403.777,851.32 402.105,849.687 398.761,849.687L370.411,849.687ZM784.462,849.687C776.451,849.687 771.512,853.07 769.645,859.837L812.812,859.837C814.367,859.837 815.593,859.37 816.487,858.437C817.381,857.504 817.829,856.22 817.829,854.587C817.829,851.32 816.156,849.687 812.812,849.687L784.462,849.687ZM468.176,780.267L468.176,696.85L486.842,696.85L486.842,780.267L468.176,780.267ZM501.426,780.267L501.426,720.184L553.809,720.184C560.654,720.184 565.651,721.875 568.801,725.259C571.951,728.642 573.526,733.095 573.526,738.617L573.526,780.267L556.609,780.267L556.609,740.6C556.609,735.934 554.276,733.6 549.609,733.6L518.343,733.6L518.343,780.267L501.426,780.267Z" style="fill:rgb(116,46,18);"/>
        </g>
    </g>
</svg>
